# xmcd CD database file
#
# Track frame offsets:
#	150
#	25835
#	56737
#	84277
#	120354
#	155347
#
# Disc length: 2532 seconds
#
# Revision: 0
# Processed by: cddbd v1.4PL0 Copyright (c) Steve Scherf et al.
# Submitted via: CDex 1.50
#
DISCID=3b09e206
DTITLE=projekt erde - no. 3
DYEAR=1996
DGENRE=New Age
TTITLE0=way home
TTITLE1=lightshower
TTITLE2=lament
TTITLE3=realignment
TTITLE4=soundwaves
TTITLE5=caravan
EXTD=YEAR: 1996
EXTT0=
EXTT1=
EXTT2=
EXTT3=
EXTT4=
EXTT5=
PLAYORDER=
